<?xml version="1.0" encoding="UTF-8" standalone="no"?>
<!-- Generator: Adobe Illustrator 19.2.0, SVG Export Plug-In . SVG Version: 6.00 Build 0)  -->

<svg
   xmlns:dc="http://purl.org/dc/elements/1.1/"
   xmlns:cc="http://creativecommons.org/ns#"
   xmlns:rdf="http://www.w3.org/1999/02/22-rdf-syntax-ns#"
   xmlns:svg="http://www.w3.org/2000/svg"
   xmlns="http://www.w3.org/2000/svg"
   xmlns:sodipodi="http://sodipodi.sourceforge.net/DTD/sodipodi-0.dtd"
   xmlns:inkscape="http://www.inkscape.org/namespaces/inkscape"
   version="1.1"
   x="0px"
   y="0px"
   width="2048px"
   height="2048px"
   viewBox="0 0 2048 2048"
   enable-background="new 0 0 2048 2048"
   xml:space="preserve"
   id="svg2"
   inkscape:version="0.91 r13725"
   sodipodi:docname="dynatrace color logo regrouped to 4 segments.svg"><metadata
     id="metadata29"><rdf:RDF><cc:Work
         rdf:about=""><dc:format>image/svg+xml</dc:format><dc:type
           rdf:resource="http://purl.org/dc/dcmitype/StillImage" /><dc:title></dc:title></cc:Work></rdf:RDF></metadata><defs
     id="defs27" /><sodipodi:namedview
     pagecolor="#ffffff"
     bordercolor="#666666"
     borderopacity="1"
     objecttolerance="10"
     gridtolerance="10"
     guidetolerance="10"
     inkscape:pageopacity="0"
     inkscape:pageshadow="2"
     inkscape:window-width="1368"
     inkscape:window-height="849"
     id="namedview25"
     showgrid="false"
     inkscape:zoom="0.32593203"
     inkscape:cx="1024"
     inkscape:cy="1100.9063"
     inkscape:window-x="-8"
     inkscape:window-y="-8"
     inkscape:window-maximized="1"
     inkscape:current-layer="svg2" /><g
     id="Background" /><g
     id="Vertical" /><g
     id="Horizontal" /><g
     id="Dynatrace_Color" /><g
     id="g3382"><path
       d="m 697,171.6 c -25.7,139.2 -59.1,344.9 -76.4,553.5 -30.6,368.5 -11.7,615.3 -11.7,615.3 L 90.6,1833.7 c 0,0 -40,-276.8 -60.2,-588 C 18,1053.8 14.3,883.3 13.4,780.8 c -0.1,-6.1 3,-11.9 3,-17.6 0,-6.6 8.7,-75.7 76.1,-139.6 73.9,-70.3 612.1,-492.8 604.5,-452 z"
       id="path13"
       inkscape:connector-curvature="0"
       style="fill:#d40000" /><path
       d="m 697,171.6 c -25.7,139.2 -59.1,344.9 -76.4,553.5 0,0 -574,-68.5 -607,69.8 0,-6.7 9.6,-91.7 77,-155.6 73.8,-70.2 614,-508.5 606.4,-467.7 z"
       id="path15"
       inkscape:connector-curvature="0"
       style="fill:#d40000" /></g><path
     style="fill:#b4dc00"
     inkscape:connector-curvature="0"
     id="path17"
     d="m 13.3,763 c 0.1,9.8 0.2,20.5 0.3,31.9 6.1,-25.3 15.6,-42.9 36.6,-69.5 42.6,-54.1 111.5,-68.2 139.1,-71.9 140.3,-18.4 347.5,-41 556.7,-47.5 369.6,-11.4 614,19.3 614,19.3 L 1878.2,132 c 0,0 -272,-51.9 -581.8,-88.3 C 1094,19.9 915.1,7.3 815.4,1.5 808.7,1.1 736.9,-7.7 669.6,56.3 595.6,126.4 224.7,478.5 75.6,620.1 8.2,684.3 13.2,756.4 13.3,763 Z" /><g
     id="g3386"
     style="fill:#808080"><path
       d="m 1859,1392.7 c -140.3,18.8 -347.3,42.1 -556.6,49.1 -369.6,12.3 -615.1,-18.7 -615.1,-18.7 l -518.2,493.3 c 0,0 274.5,53.6 584.4,89.1 189.3,21.7 358,33.7 460.7,39.8 7.1,0.4 19.3,-5.9 25.8,-5.5 6.7,0.3 79,-12.9 146.2,-77.1 73.8,-70.4 514,-575.5 472.8,-570 z"
       id="path19"
       inkscape:connector-curvature="0"
       style="fill:#808080" /><path
       d="m 1859,1392.7 c -140.3,18.8 -347.3,42.1 -556.6,49.1 0,0 40.1,576.6 -99.7,602.8 6.7,0.4 101.7,-4.6 169,-68.7 73.8,-70.4 528.5,-588.7 487.3,-583.2 z"
       id="path21"
       inkscape:connector-curvature="0"
       style="fill:#808080" /></g><path
     style="fill:#73be28"
     inkscape:connector-curvature="0"
     id="path23"
     d="m 1234.6,2046.4 c -9.8,-0.6 -20.5,-1.2 -31.9,-1.9 25.6,-4.8 43.7,-13.4 71.2,-33 56.1,-40 73.7,-108 78.6,-135.5 25.3,-139.2 58.1,-345 74.9,-553.7 29.6,-368.6 11,-614.3 11,-614.3 l 518.2,-493.3 c 0,0 38.4,274.2 59.5,585.5 13.7,203.4 17.5,382.7 18.4,482.5 0,6.7 5.3,78.8 -62,142.9 -73.7,70.5 -443.7,423.6 -592.4,565.5 -67,64.3 -138.8,55.7 -145.5,55.3 z" /><path
     style="fill:#808080;stroke:none;stroke-width:1px;stroke-linecap:butt;stroke-linejoin:miter;stroke-opacity:1"
     d="M 14.515603,756.86994 C 17.014283,714.39274 27.737684,683.20013 51.348394,649.72935 66.815447,627.80309 677.2331,49.495248 701.88342,33.414432 c 11.66357,-7.608831 30.2565,-16.996552 41.31761,-20.861603 36.95528,-12.91318666 45.50277,-12.84054639 239.6861,2.036956 254.19827,19.47559 525.90077,54.112265 806.91667,102.865885 44.7179,7.75813 81.929,14.71199 82.6914,15.45302 0.7623,0.74102 -4.7603,7.33267 -12.2725,14.64809 -10.4512,10.17742 -387.9579,368.92224 -484.6157,460.53055 l -16.8746,15.99312 -38.3516,-4.00001 C 1182.7276,605.72337 880.41549,598.89431 708.29001,606.25366 508.12815,614.8117 212.8723,643.5584 153.70415,660.24924 90.26363,678.14528 49.650022,711.21895 21.870033,767.60838 l -9.068985,18.40874 1.714555,-29.14718 z"
     id="path3378"
     inkscape:connector-curvature="0" /><path
     style="fill:#808080"
     d="M 15.441431,759.73287 C 18.740984,719.07001 28.679731,687.40982 47.210114,658.53272 60.491503,637.83546 427.34974,286.51633 649.36591,81.882587 719.31651,17.408657 744.22649,5.1794782 805.6048,5.1794782 c 85.55707,0 377.5427,26.3527318 579.2066,52.2754358 172.4396,22.166085 468.1192,69.049036 481.0245,76.271226 3.2898,1.84107 -59.8697,63.57072 -243.661,238.14458 -136.4561,129.61263 -251.7503,239.00246 -256.2094,243.0885 l -8.1074,7.42919 -54.7891,-4.80327 C 1184.2603,607.16934 1116.1044,605.07179 895.44559,605.04007 667.3149,605.00724 648.61717,605.69161 473.57849,620.48006 329.35554,632.665 193.9912,648.98052 155.54947,658.81226 96.199215,673.9915 52.763094,708.34363 22.122503,764.33506 l -8.282663,15.13539 1.601591,-19.73758 z"
     id="path3380"
     inkscape:connector-curvature="0" /></svg>