<?xml version="1.0" encoding="UTF-8" standalone="no"?>
<!-- Generator: Adobe Illustrator 19.2.0, SVG Export Plug-In . SVG Version: 6.00 Build 0)  -->

<svg
   xmlns:dc="http://purl.org/dc/elements/1.1/"
   xmlns:cc="http://creativecommons.org/ns#"
   xmlns:rdf="http://www.w3.org/1999/02/22-rdf-syntax-ns#"
   xmlns:svg="http://www.w3.org/2000/svg"
   xmlns="http://www.w3.org/2000/svg"
   xmlns:sodipodi="http://sodipodi.sourceforge.net/DTD/sodipodi-0.dtd"
   xmlns:inkscape="http://www.inkscape.org/namespaces/inkscape"
   version="1.1"
   x="0px"
   y="0px"
   width="577.99109mm"
   height="577.99109mm"
   viewBox="0 0 2048 2048"
   enable-background="new 0 0 2048 2048"
   xml:space="preserve"
   id="svg2"
   inkscape:version="0.91 r13725"
   sodipodi:docname="dynatrace color logo 4 segments with outsets.svg"><metadata
     id="metadata29"><rdf:RDF><cc:Work
         rdf:about=""><dc:format>image/svg+xml</dc:format><dc:type
           rdf:resource="http://purl.org/dc/dcmitype/StillImage" /><dc:title></dc:title></cc:Work></rdf:RDF></metadata><defs
     id="defs27" /><sodipodi:namedview
     pagecolor="#ffffff"
     bordercolor="#666666"
     borderopacity="1"
     objecttolerance="10"
     gridtolerance="10"
     guidetolerance="10"
     inkscape:pageopacity="0"
     inkscape:pageshadow="2"
     inkscape:window-width="1368"
     inkscape:window-height="849"
     id="namedview25"
     showgrid="false"
     inkscape:zoom="0.32593203"
     inkscape:cx="973.52901"
     inkscape:cy="1018.8729"
     inkscape:window-x="-8"
     inkscape:window-y="-8"
     inkscape:window-maximized="1"
     inkscape:current-layer="svg2"
     units="mm" /><path
     style="fill:#333333;stroke:#ff0000"
     d="M 794.04492,-4.8105469 C 757.59443,-4.6560648 721.20688,7.9539106 693.20703,31.455078 649.75446,64.464626 612.18289,104.25819 571.57161,140.51223 397.54593,303.16175 224.20072,466.61037 55.269531,634.57422 40.344693,649.53148 28.32964,667.36729 21.219177,687.33193 9.0419333,718.91671 3.9205926,753.15028 4.2792969,786.84375 c 2.5563764,7.98906 15.3041521,6.84372 17.0780361,-1.14733 14.231859,-25.59605 29.01206,-51.56738 51.009855,-71.41908 29.673042,-28.04524 69.012972,-44.71309 109.312942,-50.59935 76.9531,-12.22402 154.4615,-20.43522 231.99056,-27.81139 73.47375,-6.55636 147.00144,-13.1379 220.634,-17.30801 106.4532,-5.10273 213.09581,-2.98158 319.64451,-3.49876 111.7053,0.31635 223.5272,1.3084 334.8182,11.33957 23.4457,1.68051 46.9319,4.33453 70.3537,5.39748 10.2137,-2.4998 14.9981,-13.08024 23.1788,-18.71843 150.5454,-142.66954 301.5611,-284.84955 450.3974,-429.30306 14.1614,-14.33234 29.1361,-28.14796 41.5879,-43.97656 3.5354,-6.62445 -0.6082,-16.30552 -8.6263,-16.53983 -38.6606,-9.60465 -78.2283,-14.87007 -117.4009,-21.90715 C 1558.1994,69.986435 1367.3933,42.786523 1175.7114,23.450726 1069.169,12.843701 962.5287,2.668602 855.5957,-3.0703125 835.09328,-4.051668 814.57283,-4.7725202 794.04492,-4.8105469 Z"
     id="path3380"
     inkscape:connector-curvature="0" /><g
     id="Background" /><g
     id="Vertical" /><g
     id="Horizontal" /><g
     id="Dynatrace_Color" /><path
     style="fill:#666666;stroke:#ff0000"
     d="m 640.71484,598.1875 c -143.53923,8.82064 -286.92816,21.36327 -429.45614,40.6772 -40.04349,5.57353 -81.39952,12.25103 -116.373934,33.90092 -34.848718,20.57722 -63.272741,51.42921 -81.771485,87.3379 -5.0346076,5.42264 -10.9583295,11.64063 -9.3422971,19.79686 0.6882752,151.94371 6.4411351,303.85312 16.0345041,455.48752 13.309059,207.0375 34.797363,413.5297 63.585137,618.9773 178.593465,-169.9768 357.187265,-339.9533 535.779295,-509.9316 -12.01897,-201.8842 -5.10651,-404.5397 10.38214,-606.00697 3.80054,-46.84095 8.32056,-93.64408 13.51239,-140.36413 -0.7832,0.0417 -1.5664,0.0833 -2.34961,0.125 z"
     id="path13"
     inkscape:connector-curvature="0" /><path
     style="fill:#000000;stroke:#ff0000"
     d="m 683.12305,1413.2695 c -178.3436,169.7736 -356.68693,339.5474 -535.0293,509.3223 347.46776,66.3495 699.15287,111.2164 1052.34295,131.6921 7.0365,-0.4144 14.6052,1.8351 21.3934,-0.3015 3.4163,-2.062 4.7573,-6.2505 9.2265,-6.5996 50.8368,-19.2411 93.208,-59.6825 114.2188,-109.8887 15.7979,-35.1282 21.0338,-73.5734 27.3217,-111.213 23.0852,-132.871 42.311,-266.4369 56.4166,-400.5682 -239.027,13.9344 -479.27141,12.6873 -717.69342,-10.0434 -9.18006,-0.951 -18.35105,-1.9875 -27.5195,-3.0445 l -0.67773,0.6445 z"
     id="path19"
     inkscape:connector-curvature="0" /><path
     style="fill:#808080;stroke:#ff0000"
     d="m 1961.0371,196.67773 c -177.6362,169.09285 -355.2656,338.19282 -532.9004,507.28711 11.6533,197.93613 5.4442,396.56156 -8.8594,594.19306 -15.2196,194.6004 -42.0179,388.313 -77.6965,580.1625 -8.1032,44.5018 -29.5243,88.0416 -64.3739,118.0627 -23.4223,20.1126 -51.7036,34.1008 -81.9823,40.1403 -7.7529,3.6186 -4.9321,17.2617 3.7598,17.1094 20.2613,2.789 40.8431,3.5794 61.2676,2.9902 51.2022,-3.3338 99.1702,-28.9664 134.4826,-65.5413 198.6392,-190.315 398.4834,-379.3922 596.5488,-570.3029 38.2273,-41.0627 57.9714,-98.5364 53.0415,-154.4252 -3.8048,-358.70061 -31.9155,-716.99992 -80.4538,-1072.36922 -0.9447,0.89778 -1.8893,1.79557 -2.834,2.69335 z"
     id="path23"
     inkscape:connector-curvature="0" /></svg>