<?xml version="1.0" encoding="UTF-8" standalone="no"?>
<!-- Generator: Adobe Illustrator 19.2.0, SVG Export Plug-In . SVG Version: 6.00 Build 0)  -->

<svg
   xmlns:dc="http://purl.org/dc/elements/1.1/"
   xmlns:cc="http://creativecommons.org/ns#"
   xmlns:rdf="http://www.w3.org/1999/02/22-rdf-syntax-ns#"
   xmlns:svg="http://www.w3.org/2000/svg"
   xmlns="http://www.w3.org/2000/svg"
   xmlns:sodipodi="http://sodipodi.sourceforge.net/DTD/sodipodi-0.dtd"
   xmlns:inkscape="http://www.inkscape.org/namespaces/inkscape"
   version="1.1"
   x="0px"
   y="0px"
   width="577.99109mm"
   height="577.99109mm"
   viewBox="0 0 2048 2048"
   enable-background="new 0 0 2048 2048"
   xml:space="preserve"
   id="svg2"
   inkscape:version="0.91 r13725"
   sodipodi:docname="dynatrace color logo 2 segments with more outsets.svg"><metadata
     id="metadata29"><rdf:RDF><cc:Work
         rdf:about=""><dc:format>image/svg+xml</dc:format><dc:type
           rdf:resource="http://purl.org/dc/dcmitype/StillImage" /><dc:title></dc:title></cc:Work></rdf:RDF></metadata><defs
     id="defs27" /><sodipodi:namedview
     pagecolor="#ffffff"
     bordercolor="#666666"
     borderopacity="1"
     objecttolerance="10"
     gridtolerance="10"
     guidetolerance="10"
     inkscape:pageopacity="0"
     inkscape:pageshadow="2"
     inkscape:window-width="1368"
     inkscape:window-height="849"
     id="namedview25"
     showgrid="false"
     inkscape:zoom="0.32593203"
     inkscape:cx="973.52901"
     inkscape:cy="1018.8729"
     inkscape:window-x="-8"
     inkscape:window-y="-8"
     inkscape:window-maximized="1"
     inkscape:current-layer="svg2"
     units="mm" /><path
     style="fill:#333333;stroke:#ff0000"
     d="M 792.31836,-6.7949219 C 754.22409,-6.407838 716.67564,8.0519706 687.91602,32.994141 643.09428,68.044955 603.78958,109.38705 561.44261,147.24742 388.93819,308.64242 216.92327,470.63619 49.675781,637.50391 c -19.270652,20.00517 -30.98746,45.86767 -37.958984,72.47265 -5.8028204,20.48763 -8.0478812,41.81401 -9.6152345,62.91211 -1.41002199,8.30247 0.31519,16.85716 -0.2198349,25.27137 C 4.7359659,1152.881 32.514532,1507.2729 81.945312,1858.5 261.70633,1687.4174 441.46105,1516.3282 621.2207,1345.2441 608.59465,1132.116 616.61335,918.13301 634.35103,705.54902 c 2.51382,-28.4787 5.29657,-56.92908 8.3228,-85.35371 112.64747,-4.82742 225.47874,-2.61169 338.21478,-3.03842 108.27479,0.29583 216.71729,2.52768 324.47829,12.56802 18.4065,1.24319 36.945,3.96191 55.3265,3.71259 10.812,-3.57851 16.2153,-14.66012 25.1605,-20.97115 152.3155,-144.48191 305.3926,-288.19263 455.7287,-434.74359 12.0736,-12.4257 25.4021,-24.1461 35.1518,-38.5001 3.2135,-8.01234 -2.8256,-18.2075 -11.7389,-18.18529 C 1817.4754,109.7051 1768.968,103.2849 1720.8899,94.841017 1513.9038,61.009991 1305.935,32.861669 1097.0478,13.751428 1004.816,5.2038048 912.48688,-3.2215852 819.88657,-6.429391 810.69948,-6.6595489 801.50863,-6.8326566 792.31836,-6.7949219 Z"
     id="path3380"
     inkscape:connector-curvature="0" /><g
     id="Background" /><g
     id="Vertical" /><g
     id="Horizontal" /><g
     id="Dynatrace_Color" /><path
     style="fill:#000000;stroke:#ff0000"
     d="m 1962.4941,192.53516 c -178.8083,170.19889 -357.6036,340.41493 -536.4082,510.61914 12.1381,207.17335 5.1441,415.2367 -11,621.9113 -2.7889,33.3603 -5.9224,66.6541 -9.373,99.95 -235.5388,12.6698 -472.32635,10.7438 -707.02863,-12.7172 -5.51846,0.2542 -12.24035,-3.1504 -16.94013,-0.4781 -179.28371,170.6701 -358.56854,341.339 -537.85156,512.0098 351.48768,67.2917 707.32298,112.5418 1064.62552,132.9552 31.0584,3.028 63.1316,3.9728 93.209,-5.6967 37.9621,-11.2438 71.5917,-34.2254 98.7417,-62.7261 197.6677,-189.4556 396.7171,-377.4836 593.6406,-567.7001 38.2503,-41.8181 57.36,-100.0503 52.1915,-156.4084 -3.8944,-358.04677 -31.9895,-715.68402 -80.4298,-1070.4083 0.1368,-5.47823 0.5614,-5.09126 -3.377,-1.31054 z"
     id="path19"
     inkscape:connector-curvature="0" /></svg>