<?xml version="1.0" encoding="UTF-8" standalone="no"?>
<!-- Generator: Adobe Illustrator 19.2.0, SVG Export Plug-In . SVG Version: 6.00 Build 0)  -->

<svg
   xmlns:dc="http://purl.org/dc/elements/1.1/"
   xmlns:cc="http://creativecommons.org/ns#"
   xmlns:rdf="http://www.w3.org/1999/02/22-rdf-syntax-ns#"
   xmlns:svg="http://www.w3.org/2000/svg"
   xmlns="http://www.w3.org/2000/svg"
   xmlns:sodipodi="http://sodipodi.sourceforge.net/DTD/sodipodi-0.dtd"
   xmlns:inkscape="http://www.inkscape.org/namespaces/inkscape"
   version="1.1"
   x="0px"
   y="0px"
   width="2048px"
   height="2048px"
   viewBox="0 0 2048 2048"
   enable-background="new 0 0 2048 2048"
   xml:space="preserve"
   id="svg2"
   inkscape:version="0.91 r13725"
   sodipodi:docname="dynatrace color logo ungrouped.svg"><metadata
     id="metadata29"><rdf:RDF><cc:Work
         rdf:about=""><dc:format>image/svg+xml</dc:format><dc:type
           rdf:resource="http://purl.org/dc/dcmitype/StillImage" /><dc:title></dc:title></cc:Work></rdf:RDF></metadata><defs
     id="defs27" /><sodipodi:namedview
     pagecolor="#ffffff"
     bordercolor="#666666"
     borderopacity="1"
     objecttolerance="10"
     gridtolerance="10"
     guidetolerance="10"
     inkscape:pageopacity="0"
     inkscape:pageshadow="2"
     inkscape:window-width="1368"
     inkscape:window-height="849"
     id="namedview25"
     showgrid="false"
     inkscape:zoom="0.32593203"
     inkscape:cx="1024"
     inkscape:cy="1100.9063"
     inkscape:window-x="-8"
     inkscape:window-y="-8"
     inkscape:window-maximized="1"
     inkscape:current-layer="svg2" /><g
     id="Background" /><g
     id="Vertical" /><g
     id="Horizontal" /><g
     id="Dynatrace_Color" /><path
     style="fill:#1496ff"
     inkscape:connector-curvature="0"
     id="path13"
     d="m 697,171.6 c -25.7,139.2 -59.1,344.9 -76.4,553.5 -30.6,368.5 -11.7,615.3 -11.7,615.3 L 90.6,1833.7 c 0,0 -40,-276.8 -60.2,-588 C 18,1053.8 14.3,883.3 13.4,780.8 c -0.1,-6.1 3,-11.9 3,-17.6 0,-6.6 8.7,-75.7 76.1,-139.6 73.9,-70.3 612.1,-492.8 604.5,-452 z" /><path
     style="fill:#1284ea"
     inkscape:connector-curvature="0"
     id="path15"
     d="m 697,171.6 c -25.7,139.2 -59.1,344.9 -76.4,553.5 0,0 -574,-68.5 -607,69.8 0,-6.7 9.6,-91.7 77,-155.6 73.8,-70.2 614,-508.5 606.4,-467.7 z" /><path
     style="fill:#b4dc00"
     inkscape:connector-curvature="0"
     id="path17"
     d="m 13.3,763 c 0.1,9.8 0.2,20.5 0.3,31.9 6.1,-25.3 15.6,-42.9 36.6,-69.5 42.6,-54.1 111.5,-68.2 139.1,-71.9 140.3,-18.4 347.5,-41 556.7,-47.5 369.6,-11.4 614,19.3 614,19.3 L 1878.2,132 c 0,0 -272,-51.9 -581.8,-88.3 C 1094,19.9 915.1,7.3 815.4,1.5 808.7,1.1 736.9,-7.7 669.6,56.3 595.6,126.4 224.7,478.5 75.6,620.1 8.2,684.3 13.2,756.4 13.3,763 Z" /><path
     style="fill:#6f2da8"
     inkscape:connector-curvature="0"
     id="path19"
     d="m 1859,1392.7 c -140.3,18.8 -347.3,42.1 -556.6,49.1 -369.6,12.3 -615.1,-18.7 -615.1,-18.7 l -518.2,493.3 c 0,0 274.5,53.6 584.4,89.1 189.3,21.7 358,33.7 460.7,39.8 7.1,0.4 19.3,-5.9 25.8,-5.5 6.7,0.3 79,-12.9 146.2,-77.1 73.8,-70.4 514,-575.5 472.8,-570 z" /><path
     style="fill:#591f91"
     inkscape:connector-curvature="0"
     id="path21"
     d="m 1859,1392.7 c -140.3,18.8 -347.3,42.1 -556.6,49.1 0,0 40.1,576.6 -99.7,602.8 6.7,0.4 101.7,-4.6 169,-68.7 73.8,-70.4 528.5,-588.7 487.3,-583.2 z" /><path
     style="fill:#73be28"
     inkscape:connector-curvature="0"
     id="path23"
     d="m 1234.6,2046.4 c -9.8,-0.6 -20.5,-1.2 -31.9,-1.9 25.6,-4.8 43.7,-13.4 71.2,-33 56.1,-40 73.7,-108 78.6,-135.5 25.3,-139.2 58.1,-345 74.9,-553.7 29.6,-368.6 11,-614.3 11,-614.3 l 518.2,-493.3 c 0,0 38.4,274.2 59.5,585.5 13.7,203.4 17.5,382.7 18.4,482.5 0,6.7 5.3,78.8 -62,142.9 -73.7,70.5 -443.7,423.6 -592.4,565.5 -67,64.3 -138.8,55.7 -145.5,55.3 z" /></svg>