<?xml version="1.0" encoding="UTF-8" standalone="no"?>
<!-- Generator: Adobe Illustrator 19.2.0, SVG Export Plug-In . SVG Version: 6.00 Build 0)  -->

<svg
   xmlns:dc="http://purl.org/dc/elements/1.1/"
   xmlns:cc="http://creativecommons.org/ns#"
   xmlns:rdf="http://www.w3.org/1999/02/22-rdf-syntax-ns#"
   xmlns:svg="http://www.w3.org/2000/svg"
   xmlns="http://www.w3.org/2000/svg"
   xmlns:sodipodi="http://sodipodi.sourceforge.net/DTD/sodipodi-0.dtd"
   xmlns:inkscape="http://www.inkscape.org/namespaces/inkscape"
   version="1.1"
   x="0px"
   y="0px"
   width="2048px"
   height="2048px"
   viewBox="0 0 2048 2048"
   enable-background="new 0 0 2048 2048"
   xml:space="preserve"
   id="svg3336"
   inkscape:version="0.91 r13725"
   sodipodi:docname="Signet_Logo_RGB_MP_2048x2048px E.svg"><metadata
     id="metadata3363"><rdf:RDF><cc:Work
         rdf:about=""><dc:format>image/svg+xml</dc:format><dc:type
           rdf:resource="http://purl.org/dc/dcmitype/StillImage" /><dc:title></dc:title></cc:Work></rdf:RDF></metadata><defs
     id="defs3361" /><sodipodi:namedview
     pagecolor="#ffffff"
     bordercolor="#666666"
     borderopacity="1"
     objecttolerance="10"
     gridtolerance="10"
     guidetolerance="10"
     inkscape:pageopacity="0"
     inkscape:pageshadow="2"
     inkscape:window-width="1368"
     inkscape:window-height="849"
     id="namedview3359"
     showgrid="false"
     inkscape:zoom="0.31738281"
     inkscape:cx="1024"
     inkscape:cy="664.57892"
     inkscape:window-x="-8"
     inkscape:window-y="-8"
     inkscape:window-maximized="1"
     inkscape:current-layer="svg3336" /><g
     id="Background" /><g
     id="Vertical" /><g
     id="Horizontal" /><g
     id="Dynatrace_Color" /><g
     id="Variants"><g
       id="g3343"><g
         id="g3345"><g
           id="g3347" /><g
           id="g3351" /><path
           d="M1234.6,2046.4c-9.8-0.6-20.5-1.2-31.9-1.9c25.6-4.8,43.6-13.4,71.2-33c56.1-40,73.7-108,78.6-135.5     c25.3-139.2,58.1-345,74.9-553.7c29.6-368.6,11-614.3,11-614.3l518.2-493.3c0,0,38.4,274.2,59.5,585.5     c13.7,203.4,17.5,382.7,18.4,482.5c0,6.7,5.3,78.8-62,142.9c-73.7,70.5-443.7,423.5-592.4,565.5     C1313.1,2055.3,1241.3,2046.8,1234.6,2046.4z"
           id="path3357"
           fill="#1A1A1A" /></g></g></g></svg>