<?xml version="1.0" encoding="utf-8"?>
<!-- Generator: Adobe Illustrator 19.2.0, SVG Export Plug-In . SVG Version: 6.00 Build 0)  -->
<svg version="1.1" xmlns="http://www.w3.org/2000/svg" xmlns:xlink="http://www.w3.org/1999/xlink" x="0px" y="0px" width="2048px"
	 height="2048px" viewBox="0 0 2048 2048" enable-background="new 0 0 2048 2048" xml:space="preserve">
<g id="Background">
</g>
<g id="Vertical">
</g>
<g id="Horizontal">
</g>
<g id="Dynatrace_Color">
</g>
<g id="Variants">
	<g>
		<g>
			<g>
				<path fill="#1A1A1A" d="M13.6,794.9c1.1,103.7,4.9,267.4,16.8,450.7c20.2,311.3,60.2,588,60.2,588l518.2-493.2
					c0,0-18.9-246.7,11.7-615.3C620.6,725.2,46.7,656.6,13.6,794.9z"/>
			</g>
			<g>
				<path fill="#1A1A1A" d="M1207.4,2043.5c134.3-38,95-601.7,95-601.7c-369.6,12.3-615.1-18.6-615.1-18.6l-518.2,493.2
					c0,0,274.5,53.6,584.4,89.1c175,20.1,412.1,36.5,445.3,38.8C1201.6,2044.5,1205.9,2043.9,1207.4,2043.5z"/>
			</g>
			<path fill="#1A1A1A" d="M13.3,763c0.1,9.9,0.2,20.5,0.3,31.9c6.1-25.3,15.6-42.9,36.6-69.5c42.7-54.1,111.5-68.2,139.1-71.9
				c140.3-18.4,347.5-41,556.7-47.5c369.6-11.4,614,19.3,614,19.3l518.2-493.3c0,0-272-51.8-581.8-88.3
				c-202.4-23.8-381.3-36.4-481-42.2c-6.7-0.4-78.5-9.2-145.8,54.8c-74,70.1-444.9,422.2-594,563.8C8.2,684.3,13.2,756.4,13.3,763z"
				/>
			<path fill="#1A1A1A" d="M1234.6,2046.4c-9.8-0.6-20.5-1.2-31.9-1.9c25.6-4.8,43.6-13.4,71.2-33c56.1-40,73.7-108,78.6-135.5
				c25.3-139.2,58.1-345,74.9-553.7c29.6-368.6,11-614.3,11-614.3l518.2-493.3c0,0,38.4,274.2,59.5,585.5
				c13.7,203.4,17.5,382.7,18.4,482.5c0,6.7,5.3,78.8-62,142.9c-73.7,70.5-443.7,423.5-592.4,565.5
				C1313.1,2055.3,1241.3,2046.8,1234.6,2046.4z"/>
		</g>
	</g>
</g>
</svg>
