<?xml version="1.0" encoding="UTF-8" standalone="no"?>
<!-- Generator: Adobe Illustrator 19.2.0, SVG Export Plug-In . SVG Version: 6.00 Build 0)  -->

<svg
   xmlns:dc="http://purl.org/dc/elements/1.1/"
   xmlns:cc="http://creativecommons.org/ns#"
   xmlns:rdf="http://www.w3.org/1999/02/22-rdf-syntax-ns#"
   xmlns:svg="http://www.w3.org/2000/svg"
   xmlns="http://www.w3.org/2000/svg"
   xmlns:sodipodi="http://sodipodi.sourceforge.net/DTD/sodipodi-0.dtd"
   xmlns:inkscape="http://www.inkscape.org/namespaces/inkscape"
   version="1.1"
   x="0px"
   y="0px"
   width="577.99109mm"
   height="577.99109mm"
   viewBox="0 0 2048 2048"
   enable-background="new 0 0 2048 2048"
   xml:space="preserve"
   id="svg2"
   inkscape:version="0.91 r13725"
   sodipodi:docname="dynatrace color logo 4 segments.svg"><metadata
     id="metadata29"><rdf:RDF><cc:Work
         rdf:about=""><dc:format>image/svg+xml</dc:format><dc:type
           rdf:resource="http://purl.org/dc/dcmitype/StillImage" /><dc:title></dc:title></cc:Work></rdf:RDF></metadata><defs
     id="defs27" /><sodipodi:namedview
     pagecolor="#ffffff"
     bordercolor="#666666"
     borderopacity="1"
     objecttolerance="10"
     gridtolerance="10"
     guidetolerance="10"
     inkscape:pageopacity="0"
     inkscape:pageshadow="2"
     inkscape:window-width="1368"
     inkscape:window-height="849"
     id="namedview25"
     showgrid="false"
     inkscape:zoom="0.32593203"
     inkscape:cx="686.65938"
     inkscape:cy="1018.8729"
     inkscape:window-x="-8"
     inkscape:window-y="-8"
     inkscape:window-maximized="1"
     inkscape:current-layer="svg2"
     units="mm" /><path
     style="fill:#333333;stroke:#ff0000"
     d="M 15.441431,759.73287 C 18.740984,719.07001 28.679731,687.40982 47.210114,658.53272 60.491503,637.83546 427.34974,286.51633 649.36591,81.882587 719.31651,17.408657 744.22649,5.1794782 805.6048,5.1794782 c 85.55707,0 377.5427,26.3527318 579.2066,52.2754358 172.4396,22.166085 468.1192,69.049036 481.0245,76.271226 3.2898,1.84107 -59.8697,63.57072 -243.661,238.14458 -136.4561,129.61263 -251.7503,239.00246 -256.2094,243.0885 l -8.1074,7.42919 -54.7891,-4.80327 C 1184.2603,607.16934 1116.1044,605.07179 895.44559,605.04007 667.3149,605.00724 648.61717,605.69161 473.57849,620.48006 329.35554,632.665 193.9912,648.98052 155.54947,658.81226 96.199215,673.9915 52.763094,708.34363 22.122503,764.33506 l -8.282663,15.13539 1.601591,-19.73758 z"
     id="path3380"
     inkscape:connector-curvature="0" /><g
     id="Background" /><g
     id="Vertical" /><g
     id="Horizontal" /><g
     id="Dynatrace_Color" /><path
     style="fill:#666666;stroke:#ff0000"
     d="m 631.84961,608.67773 c -43.35975,2.25932 -88.31902,5.89268 -158.27149,11.80274 C 329.35518,632.66541 193.99056,648.98076 155.54883,658.8125 96.198573,673.99174 52.763638,708.34451 22.123047,764.33594 l -8.283203,15.13476 0.423828,-5.21289 c -0.506906,2.1485 -0.899641,4.32503 -0.863281,6.54297 0.9,102.5 4.6,272.99842 17,464.89842 20.2,311.2 60.199218,588 60.199218,588 L 608.90039,1340.4004 c 0,0 -18.90078,-246.8008 11.69922,-615.30079 3.23838,-39.04778 7.03941,-77.99449 11.25,-116.42188 z"
     id="path13"
     inkscape:connector-curvature="0" /><path
     style="fill:#000000;stroke:#ff0000"
     d="m 687.30078,1423.0996 -518.20117,493.3008 c 0,0 274.50039,53.5996 584.40039,89.0996 189.3,21.7 357.9992,33.7008 460.6992,39.8008 0.5466,0.031 1.1306,0.015 1.7324,-0.027 -4.1166,-0.2424 -7.7856,-0.4568 -12.1152,-0.7226 25.6,-4.8 43.6992,-13.4 71.1992,-33 56.1,-40 73.7016,-108 78.6016,-135.5 20.6645,-113.6958 46.327,-271.8264 64.1933,-439.6738 -38.1213,2.2762 -76.725,4.13 -115.4101,5.4238 -369.60002,12.3 -615.09962,-18.7012 -615.09962,-18.7012 z"
     id="path19"
     inkscape:connector-curvature="0" /><path
     style="fill:#808080;stroke:#ff0000"
     inkscape:connector-curvature="0"
     id="path23"
     d="m 1234.6,2046.4 c -9.8,-0.6 -20.5,-1.2 -31.9,-1.9 25.6,-4.8 43.7,-13.4 71.2,-33 56.1,-40 73.7,-108 78.6,-135.5 25.3,-139.2 58.1,-345 74.9,-553.7 29.6,-368.6 11,-614.3 11,-614.3 l 518.2,-493.3 c 0,0 38.4,274.2 59.5,585.5 13.7,203.4 17.5,382.7 18.4,482.5 0,6.7 5.3,78.8 -62,142.9 -73.7,70.5 -443.7,423.6 -592.4,565.5 -67,64.3 -138.8,55.7 -145.5,55.3 z" /></svg>