<?xml version="1.0" encoding="UTF-8" standalone="no"?>
<!-- Generator: Adobe Illustrator 19.2.0, SVG Export Plug-In . SVG Version: 6.00 Build 0)  -->

<svg
   xmlns:dc="http://purl.org/dc/elements/1.1/"
   xmlns:cc="http://creativecommons.org/ns#"
   xmlns:rdf="http://www.w3.org/1999/02/22-rdf-syntax-ns#"
   xmlns:svg="http://www.w3.org/2000/svg"
   xmlns="http://www.w3.org/2000/svg"
   xmlns:sodipodi="http://sodipodi.sourceforge.net/DTD/sodipodi-0.dtd"
   xmlns:inkscape="http://www.inkscape.org/namespaces/inkscape"
   version="1.1"
   x="0px"
   y="0px"
   width="577.99109mm"
   height="577.99109mm"
   viewBox="0 0 2048 2048"
   enable-background="new 0 0 2048 2048"
   xml:space="preserve"
   id="svg2"
   inkscape:version="0.91 r13725"
   sodipodi:docname="dynatrace color logo 2 segments.svg"><metadata
     id="metadata29"><rdf:RDF><cc:Work
         rdf:about=""><dc:format>image/svg+xml</dc:format><dc:type
           rdf:resource="http://purl.org/dc/dcmitype/StillImage" /><dc:title /></cc:Work></rdf:RDF></metadata><defs
     id="defs27" /><sodipodi:namedview
     pagecolor="#ffffff"
     bordercolor="#666666"
     borderopacity="1"
     objecttolerance="10"
     gridtolerance="10"
     guidetolerance="10"
     inkscape:pageopacity="0"
     inkscape:pageshadow="2"
     inkscape:window-width="1368"
     inkscape:window-height="849"
     id="namedview25"
     showgrid="false"
     inkscape:zoom="0.32593203"
     inkscape:cx="234.11104"
     inkscape:cy="1018.8729"
     inkscape:window-x="-8"
     inkscape:window-y="-8"
     inkscape:window-maximized="1"
     inkscape:current-layer="svg2"
     units="mm" /><path
     style="fill:none;stroke:#ff0000"
     d="M 805.60547 5.1796875 C 744.22716 5.1796875 719.31583 17.408886 649.36523 81.882812 C 427.34908 286.51654 60.492326 637.83594 47.210938 658.5332 C 28.680556 687.4103 18.740959 719.06956 15.441406 759.73242 L 14.34375 773.26953 L 13.841797 774.18945 L 14.265625 768.95117 C 13.758721 771.11043 13.365984 773.2983 13.402344 775.52734 C 14.302339 878.5404 18.002408 1049.8915 30.402344 1242.752 C 50.602239 1555.5096 90.601563 1833.6953 90.601562 1833.6953 L 608.89844 1337.9277 C 608.89844 1337.9277 589.99782 1089.8913 620.59766 719.54688 C 623.66416 682.38639 627.24784 645.33235 631.19336 608.71094 C 696.57496 605.28417 758.02481 605.01929 895.44531 605.03906 C 1116.1041 605.07078 1184.2597 607.17014 1303.0684 617.58594 L 1357.8574 622.38867 L 1365.9648 614.95898 C 1370.4239 610.87294 1485.7177 501.48372 1622.1738 371.87109 C 1805.9651 197.29724 1869.1257 135.56763 1865.8359 133.72656 C 1852.9306 126.50437 1557.2501 79.621162 1384.8105 57.455078 C 1183.1467 31.532376 891.16253 5.1796875 805.60547 5.1796875 z "
     id="path3380" /><g
     id="Background" /><g
     id="Vertical" /><g
     id="Horizontal" /><g
     id="Dynatrace_Color" /><path
     style="fill:none;stroke:#ff0000"
     d="M 1956.5996 214.69922 L 1438.4004 708 C 1438.4004 708 1457.0004 953.7008 1427.4004 1322.3008 C 1424.3192 1360.5778 1420.6963 1398.7524 1416.6836 1436.4414 C 1378.9275 1438.687 1340.7054 1440.5197 1302.4004 1441.8008 C 932.80039 1454.1008 687.30078 1423.0996 687.30078 1423.0996 L 169.09961 1916.4004 C 169.09961 1916.4004 443.60002 1970 753.5 2005.5 C 942.79999 2027.2 1111.4992 2039.2008 1214.1992 2045.3008 C 1214.7025 2045.3293 1215.2396 2045.3141 1215.791 2045.2793 C 1222.1539 2045.6536 1228.8215 2046.0466 1234.5996 2046.4004 C 1241.2996 2046.8004 1313.0996 2055.3996 1380.0996 1991.0996 C 1528.7996 1849.1996 1898.8 1496.0996 1972.5 1425.5996 C 2039.8 1361.4996 2034.5 1289.3992 2034.5 1282.6992 C 2033.6 1182.8992 2029.7996 1003.5992 2016.0996 800.19922 C 1994.9996 488.89924 1956.5996 214.69922 1956.5996 214.69922 z "
     id="path19" /></svg>