<?xml version="1.0" encoding="UTF-8" standalone="no"?>
<!-- Generator: Adobe Illustrator 19.2.0, SVG Export Plug-In . SVG Version: 6.00 Build 0)  -->

<svg
   xmlns:dc="http://purl.org/dc/elements/1.1/"
   xmlns:cc="http://creativecommons.org/ns#"
   xmlns:rdf="http://www.w3.org/1999/02/22-rdf-syntax-ns#"
   xmlns:svg="http://www.w3.org/2000/svg"
   xmlns="http://www.w3.org/2000/svg"
   xmlns:sodipodi="http://sodipodi.sourceforge.net/DTD/sodipodi-0.dtd"
   xmlns:inkscape="http://www.inkscape.org/namespaces/inkscape"
   version="1.1"
   x="0px"
   y="0px"
   width="2048px"
   height="2048px"
   viewBox="0 0 2048 2048"
   enable-background="new 0 0 2048 2048"
   xml:space="preserve"
   id="svg3336"
   inkscape:version="0.91 r13725"
   sodipodi:docname="Signet_Logo_RGB_MP_2048x2048px N.svg"><metadata
     id="metadata3363"><rdf:RDF><cc:Work
         rdf:about=""><dc:format>image/svg+xml</dc:format><dc:type
           rdf:resource="http://purl.org/dc/dcmitype/StillImage" /><dc:title></dc:title></cc:Work></rdf:RDF></metadata><defs
     id="defs3361" /><sodipodi:namedview
     pagecolor="#ffffff"
     bordercolor="#666666"
     borderopacity="1"
     objecttolerance="10"
     gridtolerance="10"
     guidetolerance="10"
     inkscape:pageopacity="0"
     inkscape:pageshadow="2"
     inkscape:window-width="1368"
     inkscape:window-height="849"
     id="namedview3359"
     showgrid="false"
     inkscape:zoom="0.31738281"
     inkscape:cx="1024"
     inkscape:cy="1537.4587"
     inkscape:window-x="-8"
     inkscape:window-y="-8"
     inkscape:window-maximized="1"
     inkscape:current-layer="svg3336" /><g
     id="Background" /><g
     id="Vertical" /><g
     id="Horizontal" /><g
     id="Dynatrace_Color" /><g
     id="Variants"><g
       id="g3343"><g
         id="g3345"><g
           id="g3347" /><g
           id="g3351" /><path
           d="M13.3,763c0.1,9.9,0.2,20.5,0.3,31.9c6.1-25.3,15.6-42.9,36.6-69.5c42.7-54.1,111.5-68.2,139.1-71.9     c140.3-18.4,347.5-41,556.7-47.5c369.6-11.4,614,19.3,614,19.3l518.2-493.3c0,0-272-51.8-581.8-88.3     c-202.4-23.8-381.3-36.4-481-42.2c-6.7-0.4-78.5-9.2-145.8,54.8c-74,70.1-444.9,422.2-594,563.8C8.2,684.3,13.2,756.4,13.3,763z"
           id="path3355"
           fill="#1A1A1A" /></g></g></g></svg>